# xmcd
# 
# Track frame offsets:
#     150
#     46540
#     75572
#     100160
#     129255
#     161005
#     200057
#     235190
#     256742
#     281258
#     305530
# 
# Disc length: 4374
# 
# Revision: 3
# Processed by: cddbd v1.5.2PL0 Copyright (c) Steve Scherf et al.
# Submitted via: BonkEnc v1.0.8
# 
DISCID=8211140b
DTITLE=Dechen Shak-Dagsay - DEWA CHE universal healing power of tibetan mantras
DYEAR=2005
DGENRE=New Age
TTITLE0=CHENRESI
TTITLE1=MEN-LHA
TTITLE2=LOBÖN RINPOCHE
TTITLE3=DORJE-SEMPA
TTITLE4=ÖHPA-ME
TTITLE5=TSHE-PAK-ME
TTITLE6=DOLMA
TTITLE7=NAMGYEL-MA
TTITLE8=DCHAM-PÄL-YANG
TTITLE9=TCU-DU
TTITLE10=DRIP-SEL
EXTD=YEAR: 2005
EXTT0=
EXTT1=
EXTT2=
EXTT3=
EXTT4=
EXTT5=
EXTT6=
EXTT7=
EXTT8=
EXTT9=
EXTT10=
PLAYORDER=
